{"title":"Tinker Tailor Soldier Spy[2011]ENG[BRRip]XviD-{RedDragon}","uid":7124917,"size":789126379,"categoryP":"video","categoryS":"movies","magnet":"?xt=urn:btih:302c73289a7602d22c478f3571f8c479d95eb790&amp;dn=Tinker+Tailor+Soldier+Spy%5B2011%5DENG%5BBRRip%5DXviD-%7BRedDragon%7D&amp;tr=udp%3A%2F%2Ftracker.openbittorrent.com%3A80&amp;tr=udp%3A%2F%2Fopen.demonii.com%3A1337&amp;tr=udp%3A%2F%2Ftracker.coppersurfer.tk%3A6969&amp;tr=udp%3A%2F%2Fexodus.desync.com%3A6969","seeders":2,"leechers":0,"uploader":"RedDr4gon","files":12,"time":1332499205,"description":"General.\n\nComplete name                    : Tinker Tailor Soldier Spy[2011]ENG[BRrip]XviD-{RedDragon}\nFormat                           :  .AVI\nFormat/Info                      : Audio Video Interleave\nFile size                        : 753 MiB\nDuration                         : 2h 2mn\nOverall bit rate                 : 861 Kbps\nWriting library                  : VirtualDubMod build 2178/release\nIMDB LINK                         : http://www.imdb.com/title/tt1340800/\nIMDB Rating                      : 7.3/10\n\n\nVideo.\n\nID                               : 0\nFormat                           : MPEG-4 Visual\nFormat profile                   : Advanced Simple@L5\nFormat settings, BVOP            : Yes\nFormat settings, QPel            : No\nFormat settings, GMC             : No warppoints\nFormat settings, Matrix          : Custom\nCodec ID                         : XVID\nCodec ID/Hint                    : XviD\nDuration                         : 2h 2mn\nBit rate                         : 742 Kbps\nWidth                            : 720 pixels\nHeight                           : 304 pixels\nDisplay aspect ratio             : 2.35:1\nFrame rate                       : 25.000 fps\nColor space                      : YUV\nChroma subsampling               : 4:2:0\nBit depth                        : 8 bits\nScan type                        : Progressive\nBits/(Pixel*Frame)               : 0.136\nStream size                      : 648 MiB (86%)\nWriting library                  : XviD \n\n\nAudio.\n\nID                               : 1\nFormat                           : MPEG Audio\nFormat version                   : Version 1\nFormat profile                   : Layer 3\nMode                             : Joint stereo\nMode extension                   : MS Stereo\nCodec ID                         : 55\nCodec ID/Hint                    : MP3\nDuration                         : 2h 2mn\nBit rate mode                    : Constant\nBit rate                         : 112 Kbps\nChannel(s)                       : 2 channels\nSampling rate                    : 48.0 KHz\nStream size                      : 97.8 MiB (13%)\nAlignment                        : Aligned on interleaves\nInterleave, duration             : 80 ms (2.00 video frames)\nInterleave, preload duration     : 504 ms\nWriting library                  : LAME3.98r","torrent":{"xt":"urn:btih:302c73289a7602d22c478f3571f8c479d95eb790","amp;dn":"Tinker+Tailor+Soldier+Spy%5B2011%5DENG%5BBRRip%5DXviD-%7BRedDragon%7D","amp;tr":["udp%3A%2F%2Ftracker.openbittorrent.com%3A80","udp%3A%2F%2Fopen.demonii.com%3A1337","udp%3A%2F%2Ftracker.coppersurfer.tk%3A6969","udp%3A%2F%2Fexodus.desync.com%3A6969"],"infoHash":"302c73289a7602d22c478f3571f8c479d95eb790","infoHashBuffer":{"type":"Buffer","data":[48,44,115,40,154,118,2,210,44,71,143,53,113,248,196,121,217,94,183,144]},"announce":[],"urlList":[]}}